<svg width="242" height="81" viewBox="0 0 242 81" fill="none" xmlns="http://www.w3.org/2000/svg">
<path d="M198.427 20.9772C195.466 24.5865 198.008 31.5671 204.105 36.5686C210.201 41.5702 217.544 42.6987 220.505 39.0893C223.466 35.4799 220.924 28.4994 214.827 23.4979C208.731 18.4963 201.388 17.3678 198.427 20.9772Z" fill="#F3BD13"/>
<path d="M182.44 20.9772C185.401 24.5865 182.859 31.5671 176.762 36.5686C170.665 41.5702 163.322 42.6987 160.361 39.0893C157.4 35.4799 159.942 28.4994 166.039 23.4979C172.136 18.4963 179.479 17.3678 182.44 20.9772Z" fill="#F3BD13"/>
<g filter="url(#filter0_d_31_500)">
<path d="M197.944 15.161C199.656 12.0065 203.477 10.6588 206.789 12.0413L211.364 13.9513C214.676 15.3338 216.405 18.9982 215.366 22.4335L211.501 35.2097C210.301 39.1772 205.934 41.2373 202.109 39.6405L195.032 36.6863C191.207 35.0896 189.601 30.5361 191.578 26.893L197.944 15.161Z" fill="#F3BD13"/>
</g>
<g filter="url(#filter1_d_31_500)">
<path d="M182.922 15.161C181.21 12.0065 177.389 10.6588 174.077 12.0413L169.502 13.9513C166.19 15.3338 164.461 18.9982 165.501 22.4335L169.365 35.2097C170.565 39.1772 174.932 41.2373 178.757 39.6405L185.834 36.6863C189.659 35.0896 191.265 30.5361 189.288 26.893L182.922 15.161Z" fill="#F3BD13"/>
</g>
<g filter="url(#filter2_d_31_500)">
<path d="M179.069 12.6747C178.669 8.56211 181.901 5 186.033 5H194.865C198.997 5 202.229 8.56211 201.828 12.6747L199.693 34.597C199.344 38.1814 196.331 40.9152 192.73 40.9152H188.168C184.567 40.9152 181.554 38.1814 181.204 34.597L179.069 12.6747Z" fill="#F3BD13"/>
</g>
<path d="M177.376 20.7221C177.376 19.6972 178.206 18.8665 179.231 18.8665H183.399C184.424 18.8665 185.254 19.6972 185.254 20.7221V22.968C185.254 25.1437 183.491 26.9074 181.315 26.9074V26.9074C179.139 26.9074 177.376 25.1437 177.376 22.968V20.7221Z" fill="#FFEDB2"/>
<path d="M195.654 20.7221C195.654 19.6972 196.485 18.8665 197.51 18.8665H201.677C202.702 18.8665 203.533 19.6972 203.533 20.7221V22.968C203.533 25.1437 201.769 26.9074 199.594 26.9074V26.9074C197.418 26.9074 195.654 25.1437 195.654 22.968V20.7221Z" fill="#FFEDB2"/>
<path d="M231.12 70.29C231.02 69.49 231.08 68.79 231.3 68.19C231.54 67.59 231.87 67.05 232.29 66.57C232.73 66.09 233.21 65.65 233.73 65.25C234.27 64.85 234.77 64.46 235.23 64.08C235.71 63.7 236.1 63.31 236.4 62.91C236.7 62.51 236.85 62.07 236.85 61.59C236.85 60.99 236.7 60.48 236.4 60.06C236.1 59.64 235.66 59.32 235.08 59.1C234.52 58.88 233.84 58.77 233.04 58.77C232.12 58.77 231.28 58.97 230.52 59.37C229.76 59.77 229.01 60.36 228.27 61.14L225.81 58.86C226.77 57.76 227.9 56.88 229.2 56.22C230.52 55.54 231.97 55.2 233.55 55.2C235.01 55.2 236.3 55.42 237.42 55.86C238.56 56.3 239.45 56.97 240.09 57.87C240.75 58.75 241.08 59.86 241.08 61.2C241.08 61.94 240.92 62.59 240.6 63.15C240.3 63.69 239.9 64.18 239.4 64.62C238.92 65.04 238.41 65.45 237.87 65.85C237.33 66.23 236.83 66.63 236.37 67.05C235.91 67.47 235.55 67.94 235.29 68.46C235.03 68.98 234.93 69.59 234.99 70.29H231.12ZM233.07 78.27C232.31 78.27 231.68 78.02 231.18 77.52C230.68 77.02 230.43 76.39 230.43 75.63C230.43 74.85 230.68 74.21 231.18 73.71C231.68 73.21 232.31 72.96 233.07 72.96C233.83 72.96 234.46 73.21 234.96 73.71C235.46 74.21 235.71 74.85 235.71 75.63C235.71 76.39 235.46 77.02 234.96 77.52C234.46 78.02 233.83 78.27 233.07 78.27Z" fill="#B65A0F"/>
<path d="M195.84 52.35L199.53 53.46C198.87 54.98 198.07 56.47 197.13 57.93C196.21 59.39 195.21 60.75 194.13 62.01C193.05 63.25 191.97 64.32 190.89 65.22C190.67 64.98 190.38 64.69 190.02 64.35C189.68 64.01 189.32 63.67 188.94 63.33C188.56 62.97 188.23 62.7 187.95 62.52C189.03 61.72 190.07 60.79 191.07 59.73C192.07 58.67 192.97 57.51 193.77 56.25C194.59 54.97 195.28 53.67 195.84 52.35ZM195.75 56.43H211.62V59.82H194.04L195.75 56.43ZM210.27 56.43H213.93C213.93 56.43 213.93 56.53 213.93 56.73C213.93 56.91 213.93 57.12 213.93 57.36C213.93 57.58 213.92 57.77 213.9 57.93C213.82 60.29 213.74 62.31 213.66 63.99C213.6 65.65 213.51 67.03 213.39 68.13C213.29 69.23 213.17 70.1 213.03 70.74C212.89 71.36 212.71 71.81 212.49 72.09C212.19 72.55 211.86 72.88 211.5 73.08C211.14 73.26 210.74 73.39 210.3 73.47C209.9 73.53 209.39 73.57 208.77 73.59C208.17 73.61 207.52 73.61 206.82 73.59C206.8 73.07 206.7 72.49 206.52 71.85C206.36 71.21 206.14 70.66 205.86 70.2C206.38 70.24 206.85 70.27 207.27 70.29C207.71 70.31 208.06 70.31 208.32 70.29C208.54 70.31 208.72 70.29 208.86 70.23C209 70.15 209.14 70.02 209.28 69.84C209.42 69.66 209.54 69.31 209.64 68.79C209.74 68.25 209.83 67.5 209.91 66.54C209.99 65.56 210.06 64.3 210.12 62.76C210.18 61.2 210.23 59.32 210.27 57.12V56.43ZM192.87 61.98H196.41V74.73C196.41 75.29 196.49 75.72 196.65 76.02C196.83 76.3 197.18 76.49 197.7 76.59C198.22 76.67 199 76.71 200.04 76.71C200.28 76.71 200.64 76.71 201.12 76.71C201.6 76.71 202.15 76.71 202.77 76.71C203.39 76.71 204.04 76.71 204.72 76.71C205.4 76.71 206.06 76.71 206.7 76.71C207.34 76.71 207.91 76.71 208.41 76.71C208.93 76.71 209.33 76.71 209.61 76.71C210.45 76.71 211.08 76.63 211.5 76.47C211.94 76.29 212.25 75.96 212.43 75.48C212.61 75 212.76 74.29 212.88 73.35C213.32 73.63 213.88 73.89 214.56 74.13C215.24 74.37 215.83 74.53 216.33 74.61C216.15 76.01 215.84 77.11 215.4 77.91C214.98 78.71 214.34 79.27 213.48 79.59C212.62 79.91 211.42 80.07 209.88 80.07C209.66 80.07 209.29 80.07 208.77 80.07C208.25 80.07 207.65 80.07 206.97 80.07C206.31 80.07 205.62 80.07 204.9 80.07C204.18 80.07 203.48 80.07 202.8 80.07C202.14 80.07 201.56 80.07 201.06 80.07C200.58 80.07 200.23 80.07 200.01 80.07C198.17 80.07 196.73 79.92 195.69 79.62C194.65 79.32 193.92 78.78 193.5 78C193.08 77.24 192.87 76.16 192.87 74.76V61.98ZM193.89 61.98H205.65V71.67H193.89V68.49H202.11V65.16H193.89V61.98Z" fill="#B65A0F"/>
<path d="M170.25 53.82H184.59V56.55H170.25V53.82ZM175.56 63.42H179.28V65.67H175.56V63.42ZM175.56 67.98H179.28V70.23H175.56V67.98ZM172.62 72.54H182.79V75.09H172.62V72.54ZM174.75 60.54H176.73V73.62H174.75V60.54ZM178.14 60.54H180.12V73.65H178.14V60.54ZM175.92 55.02L179.49 55.17C179.29 56.11 179.06 57.04 178.8 57.96C178.56 58.88 178.33 59.67 178.11 60.33L175.44 60C175.52 59.5 175.59 58.96 175.65 58.38C175.73 57.8 175.79 57.22 175.83 56.64C175.87 56.04 175.9 55.5 175.92 55.02ZM170.79 58.68H184.26V75.99H181.53V61.2H173.43V76.02H170.79V58.68ZM157.38 54.81H169.86V57.39H157.38V54.81ZM159.66 67.98C160.32 70 161.14 71.62 162.12 72.84C163.1 74.06 164.23 74.99 165.51 75.63C166.81 76.25 168.23 76.67 169.77 76.89C171.33 77.11 173.02 77.22 174.84 77.22C175.18 77.22 175.68 77.22 176.34 77.22C177.02 77.22 177.78 77.22 178.62 77.22C179.48 77.22 180.34 77.22 181.2 77.22C182.08 77.2 182.88 77.19 183.6 77.19C184.34 77.19 184.91 77.18 185.31 77.16C185.13 77.4 184.95 77.71 184.77 78.09C184.61 78.47 184.46 78.86 184.32 79.26C184.2 79.66 184.1 80.01 184.02 80.31H182.34H174.75C172.61 80.31 170.65 80.16 168.87 79.86C167.09 79.58 165.47 79.04 164.01 78.24C162.57 77.44 161.3 76.29 160.2 74.79C159.1 73.27 158.18 71.29 157.44 68.85L159.66 67.98ZM161.94 66.03L164.64 66.75C163.98 68.43 163.1 70.03 162 71.55C160.92 73.05 159.72 74.3 158.4 75.3C158.32 75.08 158.18 74.81 157.98 74.49C157.8 74.15 157.61 73.82 157.41 73.5C157.21 73.18 157.02 72.92 156.84 72.72C157.92 71.94 158.91 70.97 159.81 69.81C160.73 68.63 161.44 67.37 161.94 66.03ZM159.03 57.72L161.1 58.32C160.78 59.42 160.34 60.52 159.78 61.62C159.24 62.72 158.66 63.66 158.04 64.44C157.92 64.2 157.72 63.87 157.44 63.45C157.18 63.01 156.94 62.68 156.72 62.46C157.22 61.84 157.67 61.11 158.07 60.27C158.47 59.43 158.79 58.58 159.03 57.72ZM162.18 68.13H167.25V70.68H160.89L162.18 68.13ZM166.38 68.13H167.01L167.52 68.04L169.35 68.91C168.75 70.95 167.91 72.75 166.83 74.31C165.77 75.85 164.53 77.15 163.11 78.21C161.69 79.29 160.15 80.15 158.49 80.79C158.39 80.55 158.23 80.27 158.01 79.95C157.81 79.63 157.59 79.31 157.35 78.99C157.13 78.69 156.92 78.46 156.72 78.3C158.26 77.76 159.68 77.05 160.98 76.17C162.28 75.29 163.39 74.22 164.31 72.96C165.25 71.7 165.94 70.26 166.38 68.64V68.13ZM162.33 52.53H165.33V63.96H162.33V52.53ZM158.82 60.84L160.14 59.43C160.54 59.77 160.94 60.16 161.34 60.6C161.74 61.02 162.05 61.38 162.27 61.68L160.89 63.27C160.67 62.95 160.36 62.56 159.96 62.1C159.56 61.64 159.18 61.22 158.82 60.84ZM167.07 57.66L169.08 58.17C168.86 59.01 168.56 59.87 168.18 60.75C167.8 61.63 167.41 62.38 167.01 63C166.83 62.84 166.56 62.65 166.2 62.43C165.84 62.19 165.54 62.01 165.3 61.89C165.68 61.29 166.02 60.62 166.32 59.88C166.62 59.14 166.87 58.4 167.07 57.66ZM166.98 60.93L168.36 59.52C168.76 59.86 169.17 60.24 169.59 60.66C170.01 61.08 170.33 61.43 170.55 61.71L169.08 63.33C168.86 62.99 168.55 62.6 168.15 62.16C167.75 61.7 167.36 61.29 166.98 60.93ZM162.66 62.25L164.94 63.18C164.46 63.78 163.86 64.39 163.14 65.01C162.42 65.61 161.66 66.17 160.86 66.69C160.06 67.19 159.27 67.6 158.49 67.92C158.27 67.58 157.97 67.19 157.59 66.75C157.21 66.31 156.87 65.95 156.57 65.67C157.31 65.45 158.06 65.16 158.82 64.8C159.6 64.44 160.33 64.04 161.01 63.6C161.69 63.16 162.24 62.71 162.66 62.25ZM165.15 62.22C165.41 62.34 165.78 62.53 166.26 62.79C166.74 63.05 167.25 63.34 167.79 63.66C168.33 63.96 168.83 64.24 169.29 64.5C169.75 64.76 170.09 64.95 170.31 65.07L168.75 67.5C168.45 67.24 168.07 66.94 167.61 66.6C167.15 66.26 166.67 65.91 166.17 65.55C165.67 65.19 165.19 64.86 164.73 64.56C164.27 64.24 163.87 63.98 163.53 63.78L165.15 62.22Z" fill="#B65A0F"/>
<path d="M133.89 68.3699L136.8 67.4099C137.18 68.3499 137.57 69.3699 137.97 70.4699C138.37 71.5699 138.72 72.6299 139.02 73.6499C139.34 74.6699 139.57 75.5799 139.71 76.3799L136.56 77.5499C136.44 76.7699 136.24 75.8599 135.96 74.8199C135.68 73.7599 135.36 72.6699 135 71.5499C134.64 70.4099 134.27 69.3499 133.89 68.3699ZM129.06 53.3399L132.27 54.0299C131.97 55.5699 131.59 57.0999 131.13 58.6199C130.69 60.1199 130.18 61.5199 129.6 62.8199C129.02 64.1199 128.39 65.2699 127.71 66.2699C127.55 66.0499 127.31 65.7899 126.99 65.4899C126.69 65.1899 126.37 64.8899 126.03 64.5899C125.71 64.2699 125.43 64.0199 125.19 63.8399C125.81 62.9999 126.36 62.0199 126.84 60.8999C127.34 59.7799 127.77 58.5699 128.13 57.2699C128.51 55.9699 128.82 54.6599 129.06 53.3399ZM127.5 78.3899C127.44 78.1499 127.34 77.8299 127.2 77.4299C127.08 77.0299 126.95 76.6099 126.81 76.1699C126.67 75.7299 126.53 75.3599 126.39 75.0599C126.71 74.9599 126.99 74.7199 127.23 74.3399C127.47 73.9599 127.73 73.4299 128.01 72.7499C128.15 72.4299 128.34 71.9199 128.58 71.2199C128.84 70.4999 129.12 69.6499 129.42 68.6699C129.72 67.6899 130 66.6399 130.26 65.5199C130.54 64.3999 130.78 63.2799 130.98 62.1599L134.46 63.0299C134.1 64.6099 133.67 66.2099 133.17 67.8299C132.67 69.4299 132.14 70.9599 131.58 72.4199C131.04 73.8799 130.49 75.1999 129.93 76.3799V76.4399C129.93 76.4399 129.81 76.5099 129.57 76.6499C129.33 76.7699 129.04 76.9399 128.7 77.1599C128.38 77.3599 128.1 77.5699 127.86 77.7899C127.62 78.0099 127.5 78.2099 127.5 78.3899ZM127.47 78.3899L127.26 75.6299L128.7 74.5799L137.91 72.8999C137.95 73.3399 138.03 73.8399 138.15 74.3999C138.27 74.9399 138.38 75.3799 138.48 75.7199C136.28 76.1599 134.5 76.5299 133.14 76.8299C131.78 77.1099 130.73 77.3499 129.99 77.5499C129.25 77.7299 128.7 77.8799 128.34 77.9999C127.98 78.1399 127.69 78.2699 127.47 78.3899ZM133.29 54.3299L136.2 53.1899C136.74 54.2899 137.28 55.4699 137.82 56.7299C138.36 57.9699 138.83 59.1899 139.23 60.3899C139.65 61.5699 139.95 62.6299 140.13 63.5699L136.92 64.9499C136.76 64.0299 136.48 62.9599 136.08 61.7399C135.7 60.5199 135.27 59.2699 134.79 57.9899C134.31 56.6899 133.81 55.4699 133.29 54.3299ZM138.84 53.9399H153.54V57.1499H138.84V53.9399ZM143.31 65.9099V67.5299H149.1V65.9099H143.31ZM143.31 70.0799V71.6999H149.1V70.0799H143.31ZM143.31 61.7999V63.3899H149.1V61.7999H143.31ZM140.1 59.0999H152.43V74.3999H140.1V59.0999ZM144.81 56.0699L148.53 56.5799C148.07 57.4399 147.58 58.2899 147.06 59.1299C146.54 59.9499 146.07 60.6599 145.65 61.2599L142.83 60.6899C143.09 60.2499 143.34 59.7599 143.58 59.2199C143.82 58.6599 144.05 58.1099 144.27 57.5699C144.49 57.0299 144.67 56.5299 144.81 56.0699ZM143.04 74.3399L145.86 76.3199C145.1 77.1399 144.15 77.9299 143.01 78.6899C141.87 79.4699 140.73 80.0899 139.59 80.5499C139.39 80.1899 139.12 79.7599 138.78 79.2599C138.46 78.7599 138.14 78.3299 137.82 77.9699C138.46 77.6899 139.11 77.3499 139.77 76.9499C140.43 76.5499 141.05 76.1199 141.63 75.6599C142.21 75.1799 142.68 74.7399 143.04 74.3399ZM146.88 76.4699L148.65 74.1299C149.25 74.4699 149.89 74.8699 150.57 75.3299C151.25 75.7699 151.91 76.2199 152.55 76.6799C153.19 77.1199 153.71 77.5199 154.11 77.8799L152.25 80.5199C151.87 80.1399 151.37 79.6999 150.75 79.1999C150.15 78.7199 149.51 78.2399 148.83 77.7599C148.15 77.2799 147.5 76.8499 146.88 76.4699Z" fill="#B65A0F"/>
<path d="M114.96 55.53H118.74V76.14C118.74 77.22 118.6 78.05 118.32 78.63C118.04 79.23 117.53 79.68 116.79 79.98C116.07 80.28 115.15 80.46 114.03 80.52C112.91 80.6 111.58 80.64 110.04 80.64C109.96 80.28 109.84 79.86 109.68 79.38C109.52 78.92 109.33 78.46 109.11 78C108.91 77.54 108.71 77.15 108.51 76.83C109.25 76.85 109.99 76.87 110.73 76.89C111.49 76.91 112.17 76.92 112.77 76.92C113.37 76.92 113.79 76.92 114.03 76.92C114.37 76.92 114.61 76.86 114.75 76.74C114.89 76.62 114.96 76.4 114.96 76.08V55.53ZM97.83 61.53H101.31V75.51H97.83V61.53ZM99.3 61.53H110.61V73.2H99.3V69.75H107.07V64.95H99.3V61.53ZM95.04 54.51H122.22V58.17H95.04V54.51Z" fill="#B65A0F"/>
<path d="M66.69 57.39H75.9V77.58H66.69V74.43H72.66V60.51H66.69V57.39ZM64.59 57.39H67.86V79.8H64.59V57.39ZM66.57 65.4H74.22V68.52H66.57V65.4ZM68.88 52.5L72.78 53.07C72.46 54.09 72.11 55.1 71.73 56.1C71.37 57.1 71.04 57.95 70.74 58.65L67.86 57.99C68 57.47 68.13 56.89 68.25 56.25C68.39 55.61 68.52 54.96 68.64 54.3C68.76 53.64 68.84 53.04 68.88 52.5ZM79.86 57.15H88.65V60.45H79.86V57.15ZM87.39 57.15H90.72C90.72 57.15 90.72 57.26 90.72 57.48C90.72 57.68 90.72 57.91 90.72 58.17C90.72 58.43 90.71 58.63 90.69 58.77C90.61 62.15 90.51 65.02 90.39 67.38C90.29 69.72 90.16 71.66 90 73.2C89.86 74.72 89.69 75.91 89.49 76.77C89.29 77.63 89.03 78.26 88.71 78.66C88.31 79.24 87.88 79.64 87.42 79.86C86.96 80.08 86.43 80.24 85.83 80.34C85.25 80.42 84.53 80.45 83.67 80.43C82.83 80.43 81.97 80.42 81.09 80.4C81.07 79.9 80.95 79.31 80.73 78.63C80.51 77.97 80.24 77.39 79.92 76.89C80.88 76.97 81.77 77.02 82.59 77.04C83.43 77.06 84.04 77.07 84.42 77.07C84.72 77.07 84.96 77.04 85.14 76.98C85.34 76.9 85.53 76.76 85.71 76.56C85.97 76.3 86.18 75.77 86.34 74.97C86.52 74.15 86.67 73 86.79 71.52C86.91 70.04 87.02 68.17 87.12 65.91C87.22 63.65 87.31 60.96 87.39 57.84V57.15ZM79.95 52.53L83.43 53.34C83.05 54.8 82.58 56.26 82.02 57.72C81.48 59.18 80.88 60.56 80.22 61.86C79.58 63.14 78.92 64.26 78.24 65.22C78.04 65.02 77.75 64.79 77.37 64.53C77.01 64.25 76.64 63.98 76.26 63.72C75.9 63.46 75.58 63.26 75.3 63.12C75.96 62.26 76.58 61.27 77.16 60.15C77.76 59.01 78.29 57.79 78.75 56.49C79.23 55.17 79.63 53.85 79.95 52.53ZM78.48 65.82L81.3 64.23C81.8 64.91 82.33 65.66 82.89 66.48C83.45 67.3 83.98 68.1 84.48 68.88C84.98 69.66 85.39 70.35 85.71 70.95L82.65 72.81C82.37 72.19 81.99 71.48 81.51 70.68C81.05 69.88 80.55 69.06 80.01 68.22C79.49 67.36 78.98 66.56 78.48 65.82Z" fill="#B65A0F"/>
<path d="M42.87 68.58H58.71V71.82H42.87V68.58ZM41.13 76.59H60.24V79.86H41.13V76.59ZM41.58 55.77H60.03V61.41H56.76V58.74H44.7V61.5H41.58V55.77ZM48.87 70.14H52.41V78.15H48.87V70.14ZM31.92 68.73C33.12 68.43 34.56 68.04 36.24 67.56C37.94 67.06 39.65 66.55 41.37 66.03L41.91 69.21C40.33 69.75 38.72 70.28 37.08 70.8C35.46 71.32 33.97 71.8 32.61 72.24L31.92 68.73ZM32.34 58.23H41.22V61.56H32.34V58.23ZM35.46 52.53H38.76V76.89C38.76 77.71 38.67 78.36 38.49 78.84C38.33 79.34 38.02 79.73 37.56 80.01C37.12 80.29 36.56 80.48 35.88 80.58C35.22 80.68 34.39 80.72 33.39 80.7C33.35 80.26 33.24 79.71 33.06 79.05C32.88 78.41 32.68 77.85 32.46 77.37C33.02 77.39 33.53 77.41 33.99 77.43C34.47 77.43 34.8 77.42 34.98 77.4C35.16 77.4 35.28 77.37 35.34 77.31C35.42 77.23 35.46 77.09 35.46 76.89V52.53ZM47.79 53.22L51.15 52.23C51.51 52.91 51.87 53.65 52.23 54.45C52.59 55.25 52.87 55.94 53.07 56.52L49.62 57.69C49.44 57.09 49.17 56.37 48.81 55.53C48.47 54.69 48.13 53.92 47.79 53.22ZM46.86 58.26H50.13C50.07 59.52 49.95 60.64 49.77 61.62C49.59 62.58 49.26 63.44 48.78 64.2C48.32 64.94 47.65 65.58 46.77 66.12C45.91 66.66 44.78 67.1 43.38 67.44C43.26 67.06 43.03 66.61 42.69 66.09C42.35 65.57 42.02 65.17 41.7 64.89C42.84 64.63 43.74 64.32 44.4 63.96C45.08 63.6 45.59 63.16 45.93 62.64C46.29 62.1 46.53 61.47 46.65 60.75C46.77 60.03 46.84 59.2 46.86 58.26ZM51.6 57.96H54.81V62.85C54.81 63.23 54.85 63.5 54.93 63.66C55.01 63.82 55.18 63.9 55.44 63.9C55.54 63.9 55.7 63.9 55.92 63.9C56.14 63.9 56.38 63.9 56.64 63.9C56.9 63.9 57.14 63.9 57.36 63.9C57.58 63.9 57.75 63.9 57.87 63.9C58.15 63.9 58.48 63.89 58.86 63.87C59.24 63.83 59.54 63.78 59.76 63.72C59.8 64.14 59.84 64.62 59.88 65.16C59.92 65.7 59.98 66.16 60.06 66.54C59.82 66.64 59.5 66.71 59.1 66.75C58.72 66.77 58.33 66.78 57.93 66.78C57.81 66.78 57.63 66.78 57.39 66.78C57.15 66.78 56.89 66.78 56.61 66.78C56.33 66.78 56.07 66.78 55.83 66.78C55.59 66.78 55.41 66.78 55.29 66.78C54.29 66.78 53.52 66.65 52.98 66.39C52.46 66.11 52.1 65.68 51.9 65.1C51.7 64.52 51.6 63.76 51.6 62.82V57.96Z" fill="#B65A0F"/>
<path d="M1.44 65.67H28.56V69.33H1.44V65.67ZM6.12 52.86L9.93 53.67C9.55 55.11 9.08 56.52 8.52 57.9C7.98 59.26 7.39 60.54 6.75 61.74C6.11 62.92 5.43 63.96 4.71 64.86C4.45 64.66 4.1 64.44 3.66 64.2C3.24 63.94 2.81 63.7 2.37 63.48C1.93 63.24 1.55 63.06 1.23 62.94C1.97 62.16 2.65 61.23 3.27 60.15C3.89 59.07 4.44 57.91 4.92 56.67C5.42 55.41 5.82 54.14 6.12 52.86ZM6.99 57.27H25.98V60.93H5.19L6.99 57.27ZM16.86 66.42C17.76 69.26 19.23 71.6 21.27 73.44C23.31 75.28 26.05 76.56 29.49 77.28C29.21 77.54 28.91 77.87 28.59 78.27C28.29 78.67 28 79.08 27.72 79.5C27.46 79.94 27.24 80.34 27.06 80.7C24.58 80.06 22.47 79.13 20.73 77.91C18.99 76.69 17.53 75.19 16.35 73.41C15.19 71.63 14.22 69.56 13.44 67.2L16.86 66.42ZM12.96 52.5H16.74V62.07C16.74 63.47 16.65 64.89 16.47 66.33C16.31 67.77 15.97 69.18 15.45 70.56C14.93 71.94 14.17 73.26 13.17 74.52C12.17 75.76 10.85 76.91 9.21 77.97C7.59 79.01 5.58 79.9 3.18 80.64C3.04 80.34 2.83 79.99 2.55 79.59C2.29 79.19 2.01 78.79 1.71 78.39C1.41 78.01 1.13 77.7 0.869995 77.46C3.03 76.84 4.84 76.09 6.3 75.21C7.76 74.33 8.93 73.37 9.81 72.33C10.71 71.29 11.38 70.2 11.82 69.06C12.28 67.9 12.58 66.73 12.72 65.55C12.88 64.37 12.96 63.2 12.96 62.04V52.5Z" fill="#B65A0F"/>
<path d="M143.4 13.08H146.85V36.81H143.4V13.08ZM136.62 15.75H153.36V18.54H136.62V15.75ZM135.72 35.37H153.99V38.19H135.72V35.37ZM137.43 31.23H152.85V33.99H137.43V31.23ZM151.23 10.77L153.3 13.41C152.22 13.63 151.04 13.82 149.76 13.98C148.48 14.12 147.16 14.24 145.8 14.34C144.44 14.44 143.07 14.52 141.69 14.58C140.31 14.62 138.99 14.65 137.73 14.67C137.69 14.29 137.59 13.84 137.43 13.32C137.27 12.8 137.11 12.36 136.95 12C138.19 11.96 139.46 11.91 140.76 11.85C142.08 11.77 143.37 11.68 144.63 11.58C145.89 11.48 147.08 11.36 148.2 11.22C149.34 11.08 150.35 10.93 151.23 10.77ZM140.73 25.89V27.39H149.61V25.89H140.73ZM140.73 22.26V23.76H149.61V22.26H140.73ZM137.61 19.77H152.88V29.88H137.61V19.77ZM130.35 13.32H133.83V38.67H130.35V13.32ZM126.03 18.96H137.04V22.29H126.03V18.96ZM130.53 20.31L132.63 21.21C132.35 22.29 132.01 23.41 131.61 24.57C131.21 25.73 130.77 26.88 130.29 28.02C129.81 29.14 129.3 30.2 128.76 31.2C128.22 32.2 127.66 33.07 127.08 33.81C126.9 33.29 126.64 32.71 126.3 32.07C125.98 31.41 125.68 30.85 125.4 30.39C125.92 29.79 126.43 29.09 126.93 28.29C127.45 27.47 127.94 26.6 128.4 25.68C128.86 24.76 129.27 23.84 129.63 22.92C129.99 22 130.29 21.13 130.53 20.31ZM135 10.83L137.43 13.59C136.41 13.97 135.29 14.32 134.07 14.64C132.85 14.96 131.6 15.24 130.32 15.48C129.06 15.7 127.85 15.89 126.69 16.05C126.61 15.65 126.47 15.19 126.27 14.67C126.07 14.13 125.87 13.67 125.67 13.29C126.77 13.11 127.89 12.9 129.03 12.66C130.19 12.4 131.28 12.11 132.3 11.79C133.34 11.47 134.24 11.15 135 10.83ZM133.77 23.13C133.95 23.27 134.22 23.53 134.58 23.91C134.96 24.27 135.36 24.67 135.78 25.11C136.22 25.55 136.61 25.96 136.95 26.34C137.29 26.7 137.54 26.96 137.7 27.12L135.63 29.97C135.45 29.59 135.21 29.16 134.91 28.68C134.63 28.2 134.32 27.7 133.98 27.18C133.66 26.66 133.34 26.17 133.02 25.71C132.7 25.23 132.42 24.84 132.18 24.54L133.77 23.13Z" fill="#B65A0F"/>
<path d="M94.74 22.3501H122.52V26.2801H94.74V22.3501Z" fill="#B65A0F"/>
<path d="M72.15 11.85H79.89V14.88H72.15V11.85ZM72.18 18.84H80.01V21.84H72.18V18.84ZM72.15 25.95H80.28V28.98H72.15V25.95ZM78.6 11.85H81.48C81.48 11.85 81.48 11.96 81.48 12.18C81.48 12.38 81.48 12.6 81.48 12.84C81.48 13.08 81.47 13.27 81.45 13.41C81.45 16.73 81.44 19.63 81.42 22.11C81.4 24.57 81.37 26.68 81.33 28.44C81.31 30.2 81.27 31.66 81.21 32.82C81.15 33.98 81.07 34.89 80.97 35.55C80.87 36.21 80.74 36.68 80.58 36.96C80.32 37.46 80.04 37.81 79.74 38.01C79.46 38.21 79.12 38.35 78.72 38.43C78.34 38.53 77.92 38.59 77.46 38.61C77 38.63 76.51 38.63 75.99 38.61C75.97 38.15 75.89 37.62 75.75 37.02C75.61 36.42 75.42 35.9 75.18 35.46C75.58 35.48 75.94 35.5 76.26 35.52C76.6 35.52 76.88 35.52 77.1 35.52C77.3 35.54 77.46 35.5 77.58 35.4C77.7 35.3 77.82 35.13 77.94 34.89C78.06 34.63 78.16 34.08 78.24 33.24C78.32 32.38 78.38 31.11 78.42 29.43C78.46 27.75 78.49 25.54 78.51 22.8C78.55 20.06 78.58 16.69 78.6 12.69V11.85ZM74.07 13.44H76.95V21.63C76.95 22.87 76.89 24.24 76.77 25.74C76.67 27.24 76.45 28.77 76.11 30.33C75.77 31.89 75.28 33.4 74.64 34.86C74 36.3 73.16 37.6 72.12 38.76C72 38.56 71.81 38.31 71.55 38.01C71.29 37.73 71.02 37.45 70.74 37.17C70.46 36.91 70.23 36.72 70.05 36.6C70.97 35.52 71.7 34.36 72.24 33.12C72.78 31.86 73.18 30.56 73.44 29.22C73.7 27.88 73.87 26.56 73.95 25.26C74.03 23.96 74.07 22.74 74.07 21.6V13.44ZM82.71 11.85H88.68V14.76H85.65V38.7H82.71V11.85ZM88.14 11.85H88.68L89.1 11.73L91.32 12.99C91.1 13.99 90.85 15.07 90.57 16.23C90.31 17.39 90.04 18.53 89.76 19.65C89.5 20.75 89.25 21.73 89.01 22.59C89.77 23.91 90.26 25.16 90.48 26.34C90.7 27.5 90.82 28.59 90.84 29.61C90.84 30.65 90.74 31.52 90.54 32.22C90.36 32.9 90.05 33.41 89.61 33.75C89.43 33.93 89.2 34.07 88.92 34.17C88.66 34.27 88.38 34.35 88.08 34.41C87.64 34.47 87.12 34.49 86.52 34.47C86.52 34.05 86.47 33.56 86.37 33C86.27 32.42 86.11 31.91 85.89 31.47C86.07 31.49 86.24 31.5 86.4 31.5C86.56 31.5 86.71 31.5 86.85 31.5C87.11 31.48 87.33 31.38 87.51 31.2C87.65 31.04 87.75 30.78 87.81 30.42C87.87 30.04 87.9 29.6 87.9 29.1C87.9 28.28 87.8 27.34 87.6 26.28C87.42 25.2 86.98 24.07 86.28 22.89C86.46 22.15 86.64 21.32 86.82 20.4C87 19.46 87.17 18.52 87.33 17.58C87.51 16.62 87.67 15.74 87.81 14.94C87.95 14.12 88.06 13.46 88.14 12.96V11.85ZM65.82 13.17H71.37V30.84H65.82V27.54H68.64V16.44H65.82V13.17ZM64.32 13.17H66.99V33.66H64.32V13.17Z" fill="#B65A0F"/>
<path d="M32.94 23.34H59.52V26.49H32.94V23.34ZM46.38 28.74H57.6V31.86H46.38V28.74ZM44.7 24.96H48.36V36.06H44.7V24.96ZM40.08 29.73C40.64 31.19 41.42 32.29 42.42 33.03C43.42 33.75 44.62 34.23 46.02 34.47C47.44 34.71 49.02 34.84 50.76 34.86C51.1 34.86 51.57 34.86 52.17 34.86C52.79 34.86 53.48 34.86 54.24 34.86C55 34.86 55.76 34.86 56.52 34.86C57.3 34.84 58.03 34.83 58.71 34.83C59.39 34.81 59.95 34.79 60.39 34.77C60.21 35.05 60.04 35.39 59.88 35.79C59.72 36.19 59.57 36.6 59.43 37.02C59.31 37.46 59.22 37.86 59.16 38.22H57.36H50.58C48.84 38.22 47.27 38.12 45.87 37.92C44.49 37.72 43.25 37.35 42.15 36.81C41.05 36.29 40.08 35.54 39.24 34.56C38.42 33.56 37.7 32.28 37.08 30.72L40.08 29.73ZM37.47 27.12L41.04 27.63C40.56 30.11 39.77 32.29 38.67 34.17C37.59 36.03 36.23 37.55 34.59 38.73C34.41 38.51 34.15 38.24 33.81 37.92C33.49 37.6 33.15 37.28 32.79 36.96C32.45 36.64 32.14 36.39 31.86 36.21C33.4 35.27 34.63 34.02 35.55 32.46C36.47 30.9 37.11 29.12 37.47 27.12ZM39.21 17.94V19.44H52.98V17.94H39.21ZM39.21 14.1V15.57H52.98V14.1H39.21ZM35.73 11.52H56.64V21.99H35.73V11.52Z" fill="#B65A0F"/>
<path d="M13.53 10.6201L17.07 11.4301C16.65 12.9901 16.14 14.5401 15.54 16.0801C14.94 17.6001 14.28 19.0301 13.56 20.3701C12.86 21.6901 12.11 22.8501 11.31 23.8501C11.09 23.6301 10.8 23.3701 10.44 23.0701C10.1 22.7701 9.74002 22.4801 9.36002 22.2001C9.00002 21.9001 8.68002 21.6601 8.40002 21.4801C9.18002 20.6201 9.89002 19.6101 10.53 18.4501C11.17 17.2901 11.74 16.0401 12.24 14.7001C12.76 13.3601 13.19 12.0001 13.53 10.6201ZM12.69 23.9401L16.2 24.6601C15.92 25.9401 15.56 27.2001 15.12 28.4401C14.7 29.6601 14.23 30.8201 13.71 31.9201C13.19 33.0001 12.65 33.9501 12.09 34.7701C11.87 34.5701 11.57 34.3501 11.19 34.1101C10.81 33.8501 10.42 33.6101 10.02 33.3901C9.64002 33.1501 9.31002 32.9601 9.03002 32.8201C9.89002 31.7601 10.63 30.4301 11.25 28.8301C11.87 27.2301 12.35 25.6001 12.69 23.9401ZM14.19 15.9001H26.52V19.2301H12.87L14.19 15.9001ZM17.64 17.3701H21.21V34.6801C21.21 35.5201 21.12 36.2101 20.94 36.7501C20.76 37.2901 20.39 37.7101 19.83 38.0101C19.31 38.2901 18.68 38.4801 17.94 38.5801C17.22 38.6801 16.37 38.7301 15.39 38.7301C15.33 38.1901 15.17 37.5701 14.91 36.8701C14.67 36.1701 14.42 35.5801 14.16 35.1001C14.8 35.1201 15.4 35.1301 15.96 35.1301C16.54 35.1301 16.93 35.1301 17.13 35.1301C17.31 35.1301 17.44 35.1001 17.52 35.0401C17.6 34.9601 17.64 34.8201 17.64 34.6201V17.3701ZM22.29 24.7201L25.5 23.6401C26.04 24.6801 26.53 25.7901 26.97 26.9701C27.41 28.1301 27.79 29.2801 28.11 30.4201C28.43 31.5401 28.66 32.5501 28.8 33.4501L25.35 34.6501C25.23 33.7701 25.02 32.7501 24.72 31.5901C24.44 30.4301 24.09 29.2601 23.67 28.0801C23.25 26.8801 22.79 25.7601 22.29 24.7201ZM25.53 15.9001H26.01L26.58 15.7801L29.13 16.2601C28.95 17.4801 28.74 18.7401 28.5 20.0401C28.26 21.3201 28.03 22.4101 27.81 23.3101L24.75 22.7401C24.83 22.2001 24.92 21.5701 25.02 20.8501C25.12 20.1301 25.22 19.3801 25.32 18.6001C25.42 17.8001 25.49 17.0501 25.53 16.3501V15.9001ZM7.11002 10.6201L10.5 11.7001C9.86002 13.3801 9.10002 15.0801 8.22002 16.8001C7.34002 18.5001 6.39002 20.1201 5.37002 21.6601C4.35002 23.1801 3.29002 24.5101 2.19002 25.6501C2.09002 25.3501 1.92002 24.9701 1.68002 24.5101C1.46002 24.0301 1.22002 23.5501 0.96002 23.0701C0.70002 22.5901 0.47002 22.2001 0.27002 21.9001C1.17002 20.9801 2.04002 19.9201 2.88002 18.7201C3.74002 17.5201 4.53002 16.2301 5.25002 14.8501C5.99002 13.4701 6.61002 12.0601 7.11002 10.6201ZM4.23002 18.9301L7.65002 15.5101V15.5401V38.6401H4.23002V18.9301Z" fill="#B65A0F"/>
<defs>
<filter id="filter0_d_31_500" x="186.065" y="6.83593" width="34.2664" height="38.0116" filterUnits="userSpaceOnUse" color-interpolation-filters="sRGB">
<feFlood flood-opacity="0" result="BackgroundImageFix"/>
<feColorMatrix in="SourceAlpha" type="matrix" values="0 0 0 0 0 0 0 0 0 0 0 0 0 0 0 0 0 0 127 0" result="hardAlpha"/>
<feOffset/>
<feGaussianBlur stdDeviation="2.33216"/>
<feComposite in2="hardAlpha" operator="out"/>
<feColorMatrix type="matrix" values="0 0 0 0 1 0 0 0 0 1 0 0 0 0 1 0 0 0 0.1 0"/>
<feBlend mode="normal" in2="BackgroundImageFix" result="effect1_dropShadow_31_500"/>
<feBlend mode="normal" in="SourceGraphic" in2="effect1_dropShadow_31_500" result="shape"/>
</filter>
<filter id="filter1_d_31_500" x="160.535" y="6.83593" width="34.2664" height="38.0116" filterUnits="userSpaceOnUse" color-interpolation-filters="sRGB">
<feFlood flood-opacity="0" result="BackgroundImageFix"/>
<feColorMatrix in="SourceAlpha" type="matrix" values="0 0 0 0 0 0 0 0 0 0 0 0 0 0 0 0 0 0 127 0" result="hardAlpha"/>
<feOffset/>
<feGaussianBlur stdDeviation="2.33216"/>
<feComposite in2="hardAlpha" operator="out"/>
<feColorMatrix type="matrix" values="0 0 0 0 1 0 0 0 0 1 0 0 0 0 1 0 0 0 0.1 0"/>
<feBlend mode="normal" in2="BackgroundImageFix" result="effect1_dropShadow_31_500"/>
<feBlend mode="normal" in="SourceGraphic" in2="effect1_dropShadow_31_500" result="shape"/>
</filter>
<filter id="filter2_d_31_500" x="174.371" y="0.335684" width="32.1552" height="45.2439" filterUnits="userSpaceOnUse" color-interpolation-filters="sRGB">
<feFlood flood-opacity="0" result="BackgroundImageFix"/>
<feColorMatrix in="SourceAlpha" type="matrix" values="0 0 0 0 0 0 0 0 0 0 0 0 0 0 0 0 0 0 127 0" result="hardAlpha"/>
<feOffset/>
<feGaussianBlur stdDeviation="2.33216"/>
<feComposite in2="hardAlpha" operator="out"/>
<feColorMatrix type="matrix" values="0 0 0 0 1 0 0 0 0 1 0 0 0 0 1 0 0 0 0.1 0"/>
<feBlend mode="normal" in2="BackgroundImageFix" result="effect1_dropShadow_31_500"/>
<feBlend mode="normal" in="SourceGraphic" in2="effect1_dropShadow_31_500" result="shape"/>
</filter>
</defs>
</svg>
